<svg xmlns="http://www.w3.org/2000/svg" xml:space="preserve" viewBox="0 0 125.504 56.894">
  <path fill="#662d71" d="M0 26.592c.194-3.836.644-8.41 2.47-11.886 1.581-3.013 3.546-5.66 8.346-8.872 5.95-3.58 14.661-5.27 23.954-3.77 10.625 1.507 19.716 6.672 28.16 13.379l14.586 12.88c10.27 7.687 22.154 18.547 35.991 15.155 6.588-1.054 9.66-6.815 11.997-13.513-.63 6.483-.972 7.752-2.56 11.305-1.59 3.552-3.84 6.16-6.8 8.531-4.173 2.83-8.14 4.02-12.424 4.871-4.284.851-8.97.839-14.584.04C79.93 52.67 73.07 50.49 61.414 40.383L46.828 27.818c-8.142-5.992-14.52-12.449-26.499-14.634-5.643-.454-10.605.48-13.849 2.953C2.867 19.175 1.488 22.9 0 26.592Z"/>
  <path fill="#717c9b" d="M110.438 41.903c3.995-.37 7.869-1.67 11.143-7.268 3.494-6.55 3.429-13.297.315-20.214-1.557-3.35-3.87-6.108-6.711-8.449-2.978-2.455-6.76-4.672-14.371-5.764-6.117-.69-11.233.388-15.793 2.448-7.635 3.492-12.878 8.488-18.29 12.998l9.808 8.778c1.63-1.64 3.673-3.241 5.385-4.718 4.593-3.443 9.13-6.935 16.315-8.054 3.191-.414 5.844-.29 9.328.688 3.446 1.042 6.546 2.903 8.536 7.848 1.685 4.557 2.224 9.224.068 14.147-1.33 3.072-3.63 5.432-5.733 7.56zm-61.384-8.997 9.654 8.327c-4.574 4.566-9.452 8.298-14.027 11.123-8.731 5.164-16.89 5.278-24.833 3.505-7.704-2.43-13.678-7.04-17.11-14.852C.428 35.683.23 26.229 4.879 20.751c1.067-1.292 2.928-3.219 6.356-4.396 1.554-.677 2.85-.71 4.159-.773-6.66 4.763-7.342 8.74-7.681 11.047-1.077 8.39 5.193 14.954 8.422 17.079 5.3 2.922 8.837 2.482 12.751 2.027 4.575-.95 8.45-3.716 12.707-7.043z"/>
</svg>
