<svg xmlns="http://www.w3.org/2000/svg" xml:space="preserve" viewBox="0 0 205.653 54.941">
  <g fill="#5e698d" stroke-linecap="round" stroke-width="0" aria-label="visihelp" font-family="Inter" font-size="56.444">
    <path d="M336.458 91.715V49.382h4.57v4.89h.562q.52-.801 1.443-2.044.942-1.263 2.686-2.245 1.764-1.002 4.77-1.002 3.889 0 6.855 1.944 2.967 1.944 4.63 5.512 1.664 3.568 1.664 8.419 0 4.89-1.664 8.478-1.663 3.568-4.61 5.533-2.946 1.944-6.795 1.944-2.966 0-4.75-.982-1.784-1.003-2.746-2.265-.962-1.283-1.483-2.125h-.401v16.276zm4.65-26.94q0 3.488 1.023 6.154 1.022 2.646 2.986 4.15 1.965 1.482 4.81 1.482 2.967 0 4.952-1.563 2.004-1.584 3.006-4.25 1.023-2.685 1.023-5.973 0-3.247-1.002-5.852-.983-2.626-2.987-4.15-1.984-1.543-4.991-1.543-2.886 0-4.85 1.463-1.965 1.443-2.967 4.05-1.002 2.585-1.002 6.032zM327.8 39.119v41.05h-4.731V39.12ZM303.105 80.81q-4.45 0-7.677-1.964-3.207-1.984-4.951-5.532-1.724-3.568-1.724-8.298t1.724-8.338q1.744-3.628 4.85-5.653 3.128-2.044 7.297-2.044 2.405 0 4.75.801 2.345.802 4.27 2.606 1.924 1.784 3.066 4.73 1.143 2.947 1.143 7.257v2.004H292.12V62.29h18.921q0-2.606-1.042-4.65-1.022-2.045-2.926-3.227-1.885-1.183-4.45-1.183-2.826 0-4.891 1.403-2.045 1.383-3.147 3.608-1.102 2.225-1.102 4.77v2.727q0 3.487 1.202 5.913 1.223 2.405 3.388 3.668 2.164 1.242 5.03 1.242 1.865 0 3.368-.52 1.524-.542 2.626-1.604 1.102-1.083 1.704-2.686l4.57 1.283q-.722 2.325-2.426 4.089-1.703 1.744-4.209 2.726-2.505.962-5.632.962zm-41.532-19.161v18.52h-4.73V39.12h4.73v15.073h.401q1.083-2.385 3.247-3.788 2.185-1.423 5.813-1.423 3.147 0 5.512 1.262 2.366 1.243 3.668 3.829 1.323 2.566 1.323 6.534V80.17h-4.73V60.927q0-3.668-1.904-5.673-1.884-2.024-5.232-2.024-2.325 0-4.169.982-1.824.982-2.886 2.866-1.043 1.885-1.043 4.57z" style="-inkscape-font-specification:Inter" transform="translate(-157.985 -36.774)"/>
    <path d="M240.567 80.17V49.381h8.539v30.787zm4.29-34.757q-1.905 0-3.268-1.263-1.343-1.283-1.343-3.067 0-1.764 1.343-3.026 1.363-1.283 3.268-1.283 1.904 0 3.247 1.283 1.363 1.262 1.363 3.026 0 1.784-1.363 3.067-1.343 1.263-3.247 1.263zM234.474 58.16l-7.818.482q-.2-1.002-.861-1.804-.662-.822-1.744-1.303-1.063-.501-2.546-.501-1.984 0-3.347.842-1.363.822-1.363 2.205 0 1.102.882 1.864.882.761 3.026 1.222l5.573 1.123q4.49.922 6.694 2.967 2.205 2.044 2.205 5.371 0 3.027-1.784 5.312-1.764 2.285-4.85 3.568-3.067 1.263-7.076 1.263-6.113 0-9.741-2.546-3.608-2.566-4.23-6.975l8.399-.441q.38 1.864 1.844 2.846 1.463.962 3.748.962 2.245 0 3.608-.862 1.383-.882 1.403-2.265-.02-1.162-.982-1.904-.962-.762-2.967-1.163l-5.331-1.062q-4.51-.902-6.715-3.127-2.185-2.225-2.185-5.672 0-2.967 1.604-5.112 1.623-2.144 4.55-3.307 2.946-1.162 6.895-1.162 5.833 0 9.18 2.465 3.367 2.466 3.929 6.715zm-40.971 22.01V49.381h8.54v30.787zm4.29-34.757q-1.904 0-3.267-1.263-1.343-1.283-1.343-3.067 0-1.764 1.343-3.026 1.363-1.283 3.267-1.283t3.247 1.283q1.363 1.262 1.363 3.026 0 1.784-1.363 3.067-1.343 1.263-3.247 1.263zm-8.659 3.969L178.37 80.169h-9.621l-10.764-30.787h9.02L173.4 71.41h.321l6.374-22.028z" font-weight="700" style="-inkscape-font-specification:&quot;Inter Bold&quot;" transform="translate(-157.985 -36.774)"/>
  </g>
</svg>
